<svg xmlns="http://www.w3.org/2000/svg" viewBox="0 0 24 24" fill="#fb7299">
  <path d="M17.8 3.5c.9-.2 1.6.3 1.8 1.2.1.4 0 .8-.2 1.1l-2.3 2.8c1.8 1.2 3.1 3 3.5 5.1.3 1.5.1 3-.4 4.3-.5 1.3-1.3 2.4-2.3 3.3-1 .9-2.2 1.5-3.5 1.8-1.3.3-2.6.3-3.9 0-2.1-.5-3.9-1.8-5.1-3.6C5.1 17.5 4.7 15 5.1 12.6c.4-2.1 1.7-3.9 3.5-5.1L6.3 4.7c-.3-.3-.4-.7-.3-1.1.1-.6.6-1.1 1.2-1.1.3 0 .6.1.8.3l2.8 2.8h2.3l2.8-2.8c.2-.2.5-.3.9-.3zM8.8 12.5c-.7 0-1.3.6-1.3 1.3v1.3c0 .7.6 1.3 1.3 1.3s1.3-.6 1.3-1.3v-1.3c0-.7-.6-1.3-1.3-1.3zm6.4 0c-.7 0-1.3.6-1.3 1.3v1.3c0 .7.6 1.3 1.3 1.3s1.3-.6 1.3-1.3v-1.3c0-.7-.6-1.3-1.3-1.3z"/>
</svg>
